# xmcd
#
# Track frame offsets: 
#        150
#        12981
#        33456
#        44278
#        63667
#        85676
#        108552
#        148374
#        162381
#        180085
#        214117
#        242819
#        265748
#        289533
#        305875
#
# Disc length: 4744 seconds
#
# Revision: 0
# Processed by: cddbd v1.5.2PL0 Copyright (c) Steve Scherf et al.
# Submitted via: ExactAudioCopyFreeDBPlugin 1.0
#
DISCID=d812860f
DTITLE=CD nuanfang - CD nuanfang
DYEAR=2014
DGENRE=Blues
TTITLE0=AB
TTITLE1=bb
TTITLE2=cc
TTITLE3=dd
TTITLE4=ee
TTITLE5=ff
TTITLE6=gg
TTITLE7=hh
TTITLE8=ii
TTITLE9=jj
TTITLE10=kk
TTITLE11=ll
TTITLE12=mm
TTITLE13=oo
TTITLE14=pp
EXTD=
EXTT0=
EXTT1=
EXTT2=
EXTT3=
EXTT4=
EXTT5=
EXTT6=
EXTT7=
EXTT8=
EXTT9=
EXTT10=
EXTT11=
EXTT12=
EXTT13=
EXTT14=
PLAYORDER=
